. 
 
http://www.torrenting.com          :     Once & For all ;)


               www . Torrenting . Com 

(((((((((((((= Enjoy No RAR releases =))))))))))))))))))))


...................................NFO:....................................

.[center][img]http://lookpic.com/O/i2/1910/Fe16RchP.jpeg[/img][/center]
[img]http://lookpic.com/O/i2/298/l4OrvnSi.png[/img]
http://www.imdb.com/title/tt1606389/
[b]

Here's another with a with a higher
bitrate and resolution
So we got a nice cam of The Vow here
for you.Not to much to say here
did the normal rotate,crop, resize
and adjusted this and that , came out really nice.
Audio is cam but it's very good which we still filtered
to make even better. Had to do a pretty big crop
on this one to remove some subs , still see
alittle of them throughout. So enjoy. :)


The.Vow.CAM.2012.XviD-INFERNO

Format                           : AVI
Format/Info                      : Audio Video Interleave
File size                        : 1.42 GiB
Duration                         : 1h 39mn
Overall bit rate                 : 2 042 Kbps

Video
ID                               : 0
Format                           : MPEG-4 Visual
Format profile                   : Advanced Simple@L5
Format settings, BVOP            : 2
Format settings, QPel            : No
Format settings, GMC             : No warppoints
Format settings, Matrix          : Default (MPEG)
Muxing mode                      : Packed bitstream
Codec ID                         : XVID
Codec ID/Hint                    : XviD
Duration                         : 1h 39mn
Bit rate                         : 1 902 Kbps
Width                            : 720 pixels
Height                           : 304 pixels
Display aspect ratio             : 2.35:1
Frame rate                       : 29.970 fps
Color space                      : YUV
Chroma subsampling               : 4:2:0
Bit depth                        : 8 bits
Scan type                        : Progressive
Compression mode                 : Lossy
Bits/(Pixel*Frame)               : 0.290
Stream size                      : 1.32 GiB (93%)
Writing library                  : XviD 64

Audio
ID                               : 1
Format                           : MPEG Audio
Format version                   : Version 1
Format profile                   : Layer 3
Codec ID                         : 55
Codec ID/Hint                    : MP3
Duration                         : 1h 39mn
Bit rate mode                    : Constant
Bit rate                         : 128 Kbps
Channel(s)                       : 2 channels
Sampling rate                    : 48.0 KHz
Compression mode                 : Lossy
Delay relative to video          : 22ms
Stream size                      : 91.1 MiB (6%)
Alignment                        : Split accross interleaves
Interleave, duration             : 33 ms (1.00 video frame)
Interleave, preload duration     : 500 ms[/b]

[IMG]http://lookpic.com/O/i2/1964/WcslQxoJ.png[/IMG]
[center][img]http://lookpic.com/O/i2/1475/JjMV7Erl.png[/img][/center]
[center][img]http://lookpic.com/O/i2/1235/tQO46aLw.png[/img][/center]
[center][img]http://lookpic.com/O/i2/67/1rlfc0BH.png[/img][/center]
[center][img]http://lookpic.com/O/i2/746/Psgo1G9i.png[/img][/center]